<?xml version="1.0" encoding="UTF-8" standalone="no"?>
<!-- Created with Inkscape (http://www.inkscape.org/) -->

<svg
   xmlns:dc="http://purl.org/dc/elements/1.1/"
   xmlns:cc="http://creativecommons.org/ns#"
   xmlns:rdf="http://www.w3.org/1999/02/22-rdf-syntax-ns#"
   xmlns:svg="http://www.w3.org/2000/svg"
   xmlns="http://www.w3.org/2000/svg"
   xmlns:xlink="http://www.w3.org/1999/xlink"
   xmlns:sodipodi="http://sodipodi.sourceforge.net/DTD/sodipodi-0.dtd"
   xmlns:inkscape="http://www.inkscape.org/namespaces/inkscape"
   version="1.1"
   id="svg2"
   width="71"
   height="173"
   viewBox="0 0 71 173"
   sodipodi:docname="H.svg"
   inkscape:version="0.92.4 (5da689c313, 2019-01-14)">
  <metadata
     id="metadata8">
    <rdf:RDF>
      <cc:Work
         rdf:about="">
        <dc:format>image/svg+xml</dc:format>
        <dc:type
           rdf:resource="http://purl.org/dc/dcmitype/StillImage" />
        <dc:title></dc:title>
      </cc:Work>
    </rdf:RDF>
  </metadata>
  <defs
     id="defs6" />
  <sodipodi:namedview
     pagecolor="#ffffff"
     bordercolor="#666666"
     borderopacity="1"
     objecttolerance="10"
     gridtolerance="10"
     guidetolerance="10"
     inkscape:pageopacity="0"
     inkscape:pageshadow="2"
     inkscape:window-width="640"
     inkscape:window-height="480"
     id="namedview4"
     showgrid="false"
     inkscape:zoom="1.3641618"
     inkscape:cx="35.499999"
     inkscape:cy="86.499997"
     inkscape:window-x="0"
     inkscape:window-y="0"
     inkscape:window-maximized="0"
     inkscape:current-layer="svg2" />
  <image
     sodipodi:absref="C:\Users\kingsfield\Musik\SCHWERMETALL\WebSites\WebSiteVersion9\img\H.PNG"
     xlink:href="H.PNG"
     width="71"
     height="173"
     preserveAspectRatio="none"
     style="image-rendering:optimizeQuality"
     id="image10"
     x="-0.86864185"
     y="1.2669492" />
  <path
     style="fill:#000000"
     d="M 12.666667,170.33333 C 12.3,169.96667 12,144.12156 12,112.89976 V 56.132845 L 9.2531536,55.816422 C 6.9571061,55.55193 6.1465528,54.597367 4.3142212,50 L 2.1221353,44.5 7.0409361,44.198439 11.959737,43.896877 12.229868,23.198439 12.5,2.5 18.229562,2.200706 23.959123,1.901412 24.229562,22.700706 24.5,43.5 40.229635,43.77529 55.959269,44.050579 56.229635,23.27529 56.5,2.5 62.25,2.2000961 68,1.9001923 V 86.5 171.09981 L 62.25,170.7999 56.5,170.5 56.24181,113.25 55.983621,56 H 39.99181 24 v 57.5 57.5 h -5.333333 c -2.933334,0 -5.633334,-0.3 -6,-0.66667 z"
     id="path12"
     inkscape:connector-curvature="0" />
</svg>
