<?xml version="1.0" encoding="UTF-8" standalone="no"?>
<!-- Created with Inkscape (http://www.inkscape.org/) -->

<svg
   xmlns:dc="http://purl.org/dc/elements/1.1/"
   xmlns:cc="http://creativecommons.org/ns#"
   xmlns:rdf="http://www.w3.org/1999/02/22-rdf-syntax-ns#"
   xmlns:svg="http://www.w3.org/2000/svg"
   xmlns="http://www.w3.org/2000/svg"
   xmlns:xlink="http://www.w3.org/1999/xlink"
   xmlns:sodipodi="http://sodipodi.sourceforge.net/DTD/sodipodi-0.dtd"
   xmlns:inkscape="http://www.inkscape.org/namespaces/inkscape"
   version="1.1"
   id="svg2"
   width="111"
   height="175"
   viewBox="0 0 111 175"
   sodipodi:docname="M.svg"
   inkscape:version="0.92.4 (5da689c313, 2019-01-14)">
  <metadata
     id="metadata8">
    <rdf:RDF>
      <cc:Work
         rdf:about="">
        <dc:format>image/svg+xml</dc:format>
        <dc:type
           rdf:resource="http://purl.org/dc/dcmitype/StillImage" />
        <dc:title></dc:title>
      </cc:Work>
    </rdf:RDF>
  </metadata>
  <defs
     id="defs6" />
  <sodipodi:namedview
     pagecolor="#ffffff"
     bordercolor="#666666"
     borderopacity="1"
     objecttolerance="10"
     gridtolerance="10"
     guidetolerance="10"
     inkscape:pageopacity="0"
     inkscape:pageshadow="2"
     inkscape:window-width="1366"
     inkscape:window-height="705"
     id="namedview4"
     showgrid="false"
     inkscape:zoom="1.3485714"
     inkscape:cx="55.5"
     inkscape:cy="87.5"
     inkscape:window-x="-8"
     inkscape:window-y="-8"
     inkscape:window-maximized="1"
     inkscape:current-layer="svg2" />
  <image
     sodipodi:absref="C:\Users\kingsfield\Musik\SCHWERMETALL\WebSites\WebSiteVersion9\img\M.PNG"
     xlink:href="M.PNG"
     y="-20.021187"
     x="-228.38983"
     id="image10"
     style="image-rendering:optimizeQuality"
     preserveAspectRatio="none"
     height="175"
     width="111" />
  <path
     style="fill:#000000"
     d="m 2.6340021,172.21682 c -0.2662175,-0.43075 -0.1141777,-2.79325 0.3378663,-5.25 0.8808202,-4.78705 2.2622348,-13.20287 4.0161051,-24.46682 0.59947,-3.85 1.5224137,-9.5875 2.050986,-12.75 0.5285723,-3.1625 1.3935085,-8.3375 1.9220815,-11.5 0.528572,-3.1625 1.446104,-8.9 2.038959,-12.75 0.592855,-3.85 1.510387,-9.5875 2.038959,-12.75 0.528573,-3.1625 1.393509,-8.3375 1.922082,-11.5 C 17.489613,78.0875 18.407145,72.35 19,68.5 c 1.039164,-6.748325 1.898628,-11.993762 3.973357,-24.25 0.535346,-3.1625 1.469767,-9.125 2.07649,-13.25 0.606723,-4.125 1.518712,-9.386769 2.026643,-11.69282 0.50793,-2.306051 0.92602,-5.231051 0.929087,-6.5 C 28.013282,9.619695 29.930601,3 30.846116,3 c 0.413659,0 1.356396,1.6875 2.094971,3.75 1.263194,3.527522 2.4236,6.209218 8.558913,19.779635 1.375,3.0413 2.5,5.727964 2.5,5.970365 0,0.242401 1.125,2.929065 2.5,5.970365 1.375,3.041299 3.625,8.017971 5,11.05927 1.375,3.0413 2.5,5.9663 2.5,6.5 C 54,56.563336 54.588398,57 55.307552,57 c 1.235434,0 2.378207,-2.103243 6.24839,-11.5 0.9061,-2.2 2.726691,-6.375836 4.045756,-9.279635 C 66.920764,33.316565 68,30.740334 68,30.495407 68,30.250479 69.270703,27.226315 70.823784,23.775042 72.376865,20.323769 74.274935,15.925 75.041717,14 c 0.766782,-1.925 2.376815,-5.525 3.577851,-8 2.618594,-5.39619289 2.103225,-6.94786126 6.310633,19 3.728525,22.994505 8.65163,53.222422 14.495086,89 2.470323,15.125 5.414483,33.35 6.542583,40.5 1.12809,7.15 2.30757,14.2375 2.62106,15.75 l 0.56998,2.75 h -6.11084 c -4.034511,0 -6.230289,-0.42472 -6.462391,-1.25 C 96.21792,170.44237 94.858866,162.36103 93.012026,150.5 92.412556,146.65 91.507145,141.025 91,138 c -0.507145,-3.025 -1.389613,-8.5375 -1.961041,-12.25 -0.571427,-3.7125 -1.506491,-9.7875 -2.077918,-13.5 C 86.389613,108.5375 85.507145,103.025 85,100 84.492855,96.975 83.592855,91.35 83,87.5 82.407145,83.65 81.507145,78.025 81,75 80.492855,71.975 79.592855,66.35 79,62.5 77.058475,49.891747 75.741067,44 74.863357,44 74.38851,44 74,44.436664 74,44.970365 c 0,0.5337 -1.090292,3.353986 -2.422871,6.267301 C 70.24455,54.150981 68.184842,58.994031 67,62 65.815158,65.005969 63.835171,69.723183 62.600028,72.482699 61.364886,75.242214 59.749175,79.075 59.00956,81 56.781735,86.798368 54,89.130567 54,85.2 54,84.21 53.617672,82.9725 53.150383,82.45 52.683094,81.9275 51.521148,79.475 50.568283,77 49.615417,74.525 48.197745,71.0375 47.4179,69.25 46.638055,67.4625 45.361945,64.5375 44.5821,62.75 43.802255,60.9625 42.36865,57.475 41.39631,55 39.003987,48.910565 36.626673,44.708891 35.328806,44.276269 34.696001,44.065334 34.02206,46.092682 33.689018,49.209075 33.378032,52.119084 32.645781,57.5375 32.061794,61.25 31.477807,64.9625 30.55,70.925 30,74.5 c -0.55,3.575 -1.436048,9.3125 -1.968996,12.75 -0.532947,3.4375 -1.432947,9.2875 -2,13 -0.567052,3.7125 -1.467052,9.5625 -2,13 -0.532947,3.4375 -1.446899,9.4 -2.031004,13.25 -0.584105,3.85 -1.498057,9.8125 -2.031004,13.25 -2.274374,14.66966 -3.084474,20.0635 -3.792451,25.25103 -0.412919,3.02556 -1.098121,6.06306 -1.52267,6.75 -0.848143,1.37232 -11.211406,1.77392 -12.0198729,0.46579 z"
     id="path12"
     inkscape:connector-curvature="0" />
</svg>
